<?xml version="1.0" standalone="no"?>
<svg viewBox="0 0 200 200" xmlns="http://www.w3.org/2000/svg">
  <path fill="#FF0066" d="M32.1,-56.4C41.6,-50.1,49.3,-41.5,57.4,-31.7C65.6,-21.9,74.1,-11,72.8,-0.7C71.5,9.5,60.4,19,48.8,22.7C37.2,26.5,25.1,24.5,16.9,25.9C8.7,27.3,4.3,32,-1.8,35.1C-7.9,38.2,-15.9,39.7,-28.5,40.9C-41.2,42.1,-58.6,43,-62.9,36.1C-67.1,29.3,-58.2,14.6,-59.2,-0.6C-60.2,-15.8,-71.1,-31.6,-65,-35.1C-58.8,-38.7,-35.6,-30.1,-21.9,-33.9C-8.2,-37.8,-4.1,-54.2,3.6,-60.4C11.3,-66.6,22.6,-62.7,32.1,-56.4Z" transform="translate(100 100)" />
</svg>
