<?xml version="1.0" standalone="no"?>
<svg viewBox="0 0 200 200" xmlns="http://www.w3.org/2000/svg">
  <path fill="#FF0066" d="M44.6,-74.4C57.1,-70,66,-56.6,67.5,-42.8C68.9,-28.9,62.8,-14.4,60.3,-1.5C57.8,11.5,58.8,23,56.5,35.4C54.1,47.7,48.4,60.8,38.4,60.4C28.4,60.1,14.2,46.3,-0.2,46.6C-14.6,46.9,-29.2,61.4,-41.6,63.1C-53.9,64.8,-64,53.8,-69.8,41.2C-75.6,28.5,-77,14.3,-77.7,-0.4C-78.3,-15,-78.2,-30,-69.6,-37.7C-60.9,-45.4,-43.8,-45.8,-30.8,-49.9C-17.7,-54,-8.9,-62,3.6,-68.2C16,-74.3,32.1,-78.8,44.6,-74.4Z" transform="translate(100 100)" />
</svg>
