<?xml version="1.0" standalone="no"?>
<svg viewBox="0 0 200 200" xmlns="http://www.w3.org/2000/svg">
  <path fill="#FF0066" d="M26.6,-43.2C35.5,-41,44.2,-35.8,47.5,-28.1C50.8,-20.4,48.6,-10.2,48.7,0.1C48.8,10.3,51.2,20.6,46.8,26.3C42.3,32,31,33,22,37.6C13.1,42.2,6.5,50.3,-0.5,51.1C-7.5,51.9,-15,45.4,-24.3,41.1C-33.7,36.7,-45,34.6,-55.1,28.1C-65.2,21.6,-74.2,10.8,-75,-0.5C-75.8,-11.7,-68.4,-23.5,-57.3,-28.3C-46.2,-33.1,-31.4,-31,-21.3,-32.4C-11.1,-33.8,-5.6,-38.8,1.7,-41.7C8.9,-44.6,17.8,-45.4,26.6,-43.2Z" transform="translate(100 100)" />
</svg>
