<?xml version="1.0" standalone="no"?>
<svg viewBox="0 0 200 200" xmlns="http://www.w3.org/2000/svg">
  <path fill="#F1C21B" d="M46.2,-63.2C58.4,-64,65.8,-48.7,60.3,-35.1C54.7,-21.5,36.2,-9.5,31.2,2.4C26.3,14.3,35,26.1,36.1,39.4C37.2,52.7,30.7,67.4,22.9,62.6C15.2,57.8,6.3,33.4,1.8,20.1C-2.6,6.7,-2.6,4.5,-18.1,5.3C-33.6,6.1,-64.5,9.9,-77.1,3.6C-89.7,-2.8,-84.1,-19.3,-76.4,-34.3C-68.7,-49.3,-58.9,-62.8,-45.8,-61.7C-32.7,-60.6,-16.4,-44.8,0.3,-45.2C17,-45.7,34,-62.5,46.2,-63.2Z" transform="translate(100 100)" />
</svg>
