<?xml version="1.0" standalone="no"?>
<svg viewBox="0 0 200 200" xmlns="http://www.w3.org/2000/svg">
  <path fill="#F1C21B" d="M35.7,-63C41.9,-51.5,39.5,-34.2,48.5,-20.4C57.5,-6.6,77.7,3.7,79.4,13.4C81.1,23,64.2,32,50.6,39.1C37,46.2,26.8,51.4,16.5,53C6.2,54.5,-4.3,52.5,-16.4,51.1C-28.5,49.7,-42.2,49.1,-49.5,42.1C-56.7,35.1,-57.5,21.7,-51.1,12.3C-44.7,2.9,-31.1,-2.5,-26,-11.2C-21,-19.9,-24.6,-31.9,-21.7,-44.8C-18.8,-57.8,-9.4,-71.8,2.7,-75.9C14.7,-80.1,29.5,-74.4,35.7,-63Z" transform="translate(100 100)" />
</svg>
