<?xml version="1.0" standalone="no"?>
<svg viewBox="0 0 200 200" xmlns="http://www.w3.org/2000/svg">
  <path fill="#F2F4F8" d="M25.8,-37.7C39.2,-31.5,59.7,-34.1,67.1,-27.7C74.5,-21.4,68.8,-6.2,61.1,4.8C53.4,15.9,43.7,22.6,37.1,34.6C30.5,46.5,27.1,63.5,19.5,65.1C12,66.7,0.3,52.9,-12,46.6C-24.3,40.4,-37.1,41.8,-43.3,36.5C-49.5,31.2,-49,19.1,-51.2,7.1C-53.4,-4.9,-58.1,-16.8,-54.1,-24.4C-50.1,-31.9,-37.4,-35.1,-26.9,-42.6C-16.4,-50.2,-8.2,-62.1,-1,-60.5C6.2,-59,12.4,-44,25.8,-37.7Z" transform="translate(100 100)" />
</svg>
