<?xml version="1.0" standalone="no"?>
<svg viewBox="0 0 200 200" xmlns="http://www.w3.org/2000/svg">
  <path fill="#F1C21B" d="M23.2,-35.7C32.9,-29.9,45.6,-28.2,48.1,-22.2C50.6,-16.1,43,-5.5,36.7,2C30.5,9.4,25.6,13.7,21.4,18.4C17.1,23.1,13.4,28.2,5.5,40.4C-2.4,52.7,-14.6,72.1,-27.3,76.1C-39.9,80.1,-53,68.7,-62.7,55.5C-72.4,42.3,-78.6,27.2,-74.7,14.4C-70.9,1.6,-56.9,-9,-46,-16.2C-35.2,-23.3,-27.5,-27.1,-20.4,-34.1C-13.2,-41.1,-6.6,-51.4,0.1,-51.6C6.8,-51.7,13.5,-41.6,23.2,-35.7Z" transform="translate(100 100)" />
</svg>
