<?xml version="1.0" standalone="no"?>
<svg viewBox="0 0 200 200" xmlns="http://www.w3.org/2000/svg">
  <path fill="#F1C21B" d="M13.3,-32.7C16.1,-19,16.3,-13.3,27.5,-7.2C38.7,-1,60.9,5.5,68.2,15.4C75.5,25.3,67.8,38.7,55.7,42.9C43.7,47,27.2,41.8,13.5,45.9C-0.3,50,-11.4,63.3,-23.6,66.2C-35.9,69.1,-49.3,61.7,-52.1,49.9C-54.9,38.1,-47.1,21.9,-46.1,8.5C-45.1,-4.9,-51,-15.4,-52.3,-28.6C-53.6,-41.8,-50.4,-57.7,-41,-68.3C-31.5,-79,-15.8,-84.4,-5.2,-76.2C5.3,-68.1,10.6,-46.4,13.3,-32.7Z" transform="translate(100 100)" />
</svg>
