<?xml version="1.0" standalone="no"?>
<svg viewBox="0 0 200 200" xmlns="http://www.w3.org/2000/svg">
  <path fill="#F2F4F8" d="M42.4,-64.7C56.7,-56.9,71,-47.9,73.5,-35.6C76.1,-23.2,67,-7.4,64.6,9.4C62.3,26.1,66.8,44,60,52.1C53.1,60.3,35,58.7,21,55.5C7.1,52.2,-2.7,47.2,-12.7,44C-22.8,40.8,-33.2,39.3,-40.4,33.6C-47.6,27.8,-51.6,17.9,-55.7,6.4C-59.9,-5.1,-64.2,-18.2,-62.8,-31.8C-61.4,-45.4,-54.3,-59.4,-42.9,-68.5C-31.5,-77.6,-15.7,-81.6,-0.8,-80.4C14.1,-79.1,28.2,-72.5,42.4,-64.7Z" transform="translate(100 100)" />
</svg>
