<?xml version="1.0" standalone="no"?>
<svg viewBox="0 0 200 200" xmlns="http://www.w3.org/2000/svg">
  <path fill="#FF0066" d="M38.2,-65.8C50,-59.4,60.5,-50.2,67.4,-38.7C74.3,-27.3,77.7,-13.6,78.8,0.7C80,14.9,78.8,29.9,71.6,40.8C64.4,51.7,51.1,58.6,38.1,65C25.2,71.4,12.6,77.3,-0.6,78.4C-13.8,79.4,-27.6,75.6,-40,68.9C-52.5,62.2,-63.5,52.6,-71.8,40.7C-80.2,28.7,-85.7,14.4,-84.6,0.7C-83.5,-13,-75.6,-26.1,-67.6,-38.5C-59.5,-50.9,-51.2,-62.6,-39.9,-69.3C-28.6,-76,-14.3,-77.6,-0.5,-76.7C13.2,-75.8,26.4,-72.2,38.2,-65.8Z" transform="translate(100 100)" />
</svg>
