<?xml version="1.0" standalone="no"?>
<svg viewBox="0 0 200 200" xmlns="http://www.w3.org/2000/svg">
  <path fill="#F2F4F8" d="M25.7,-37C34.4,-34.5,43,-29.1,46.9,-21.2C50.8,-13.4,49.9,-3.2,52.3,10.3C54.7,23.8,60.5,40.7,54,45C47.5,49.4,28.6,41.3,16,37.1C3.3,32.9,-3.1,32.6,-13,34.3C-23,36,-36.5,39.7,-50.9,36.6C-65.2,33.5,-80.3,23.6,-83.1,11.3C-85.8,-1,-76.2,-15.7,-67.3,-28.9C-58.4,-42.1,-50.3,-53.8,-39.2,-55.2C-28.1,-56.5,-14,-47.4,-2.7,-43.2C8.6,-38.9,17.1,-39.4,25.7,-37Z" transform="translate(100 100)" />
</svg>
